<?xml version="1.0" encoding="UTF-8"?>
<svg version="1.1" xmlns="http://www.w3.org/2000/svg" width="50" height="50">
<path d="M0 0 C16.5 0 33 0 50 0 C50 16.5 50 33 50 50 C33.5 50 17 50 0 50 C0 33.5 0 17 0 0 Z " fill="#FAFBFC" transform="translate(0,0)"/>
<path d="M0 0 C6.99390244 0.45121951 6.99390244 0.45121951 10.0625 2.125 C11.57898353 5.15796706 10.66724785 7.78507852 10 11 C9.01 11.33 8.02 11.66 7 12 C6.67 12.99 6.34 13.98 6 15 C6.7425 15.061875 7.485 15.12375 8.25 15.1875 C11.93916043 16.27747922 12.98636796 17.76380565 15 21 C15.75 24.3125 15.75 24.3125 16 27 C11.25 30.875 11.25 30.875 9 32 C9 33.32 9 34.64 9 36 C9.763125 35.236875 10.52625 34.47375 11.3125 33.6875 C14 31 14 31 15.875 29.625 C17.29646353 27.90117882 17.29646353 27.90117882 17 24.875 C16.24259805 20.74451727 14.15877026 17.44542962 11.9609375 13.91796875 C11.64382812 13.28503906 11.32671875 12.65210938 11 12 C11.33 11.34 11.66 10.68 12 10 C15.75290685 11.20629149 17.43961515 13.50926237 19.234375 16.94921875 C21.23720938 22.3139537 20.48163189 27.42379028 18.5 32.6875 C16.14649605 37.48696698 12.65389925 40.45489885 8 43 C5.193447 43.92262668 2.69378685 44.11156311 -0.25 44.0625 C-2.10625 44.0315625 -2.10625 44.0315625 -4 44 C-4.33 42.68 -4.66 41.36 -5 40 C-2.03 40 0.94 40 4 40 C3.06454002 37.40743101 3.06454002 37.40743101 1 35 C-1.72714162 34.23618519 -4.14167178 34.14057352 -7 34 C-6.67 36.97 -6.34 39.94 -6 43 C-9.3 43 -12.6 43 -16 43 C-14.68 42.34 -13.36 41.68 -12 41 C-12.33 37.04 -12.66 33.08 -13 29 C-11.02 28.67 -9.04 28.34 -7 28 C-7.66 27.34 -8.32 26.68 -9 26 C-8.90638263 22.44253981 -8.22527151 21.22527151 -5.6875 18.6875 C-3 17 -3 17 1 17 C1 16.01 1 15.02 1 14 C-0.32 13.67 -1.64 13.34 -3 13 C-3.21261427 8.53510027 -2.64459552 5.15985925 -1 1 C-0.67 0.67 -0.34 0.34 0 0 Z " fill="#115078" transform="translate(25,2)"/>
<path d="M0 0 C0.33 2.31 0.66 4.62 1 7 C1.99 7.33 2.98 7.66 4 8 C4 8.99 4 9.98 4 11 C3.2575 11.268125 2.515 11.53625 1.75 11.8125 C-0.86636554 12.94229421 -2.80187111 14.20893202 -5 16 C-4.34414811 19.60992379 -4.34414811 19.60992379 -3 23 C-5.31 23 -7.62 23 -10 23 C-10.33 25.97 -10.66 28.94 -11 32 C-15.10123885 28.445593 -16.66897329 25.23476982 -17.22265625 19.82421875 C-17.41776959 14.77672135 -16.95745285 11.25133847 -14 7 C-5.30252501 -1.5907575 -5.30252501 -1.5907575 0 0 Z " fill="#F3F6F8" transform="translate(22,8)"/>
<path d="M0 0 C0.99 0.33 1.98 0.66 3 1 C1.87564255 4.14820086 0.952422 5.03036893 -1.9375 6.875 C-5.57962038 9.40218557 -6.45648355 10.86524684 -8 15 C-8.20601495 18.15795038 -7.97113858 21.22736481 -7.6875 24.375 C-7.5956543 25.62216797 -7.5956543 25.62216797 -7.50195312 26.89453125 C-7.34981225 28.93087831 -7.17699165 30.96566224 -7 33 C-11.62255849 28.59353673 -13.0664302 24.86571861 -13.3125 18.5 C-13.14614194 13.26409892 -11.89072648 9.86752738 -8.08984375 6.11328125 C-2.85 1.425 -2.85 1.425 0 0 Z " fill="#14527A" transform="translate(18,7)"/>
<path d="M0 0 C0.26554687 0.55816406 0.53109375 1.11632813 0.8046875 1.69140625 C2.56397351 5.08924295 4.68251628 8.25260294 6.7578125 11.46484375 C8.16406199 14.33483092 8.50152132 15.85044608 8 19 C6.5390625 21.23828125 6.5390625 21.23828125 4.625 23.3125 C3.99851562 24.00988281 3.37203125 24.70726563 2.7265625 25.42578125 C1 27 1 27 -1 27 C-1.33 25.68 -1.66 24.36 -2 23 C1.465 20.525 1.465 20.525 5 18 C4.72301826 14.02992844 4.23315777 12.27610788 1.625 9.1875 C-0.86461552 6.84268408 -0.86461552 6.84268408 -4 6 C-3.67 4.68 -3.34 3.36 -3 2 C-2.34 2 -1.68 2 -1 2 C-0.67 1.34 -0.34 0.68 0 0 Z " fill="#E2EAEE" transform="translate(35,11)"/>
<path d="M0 0 C1.66666667 3.33333333 3.33333333 6.66666667 5 10 C2 10 2 10 0.5 8.5625 C0.005 8.046875 -0.49 7.53125 -1 7 C-1.99 6.67 -2.98 6.34 -4 6 C-3.67 4.68 -3.34 3.36 -3 2 C-2.34 2 -1.68 2 -1 2 C-0.67 1.34 -0.34 0.68 0 0 Z " fill="#E1E9ED" transform="translate(35,11)"/>
<path d="M0 0 C0.99 0.99 1.98 1.98 3 3 C2.1875 4.9375 2.1875 4.9375 1 7 C0.01 7.33 -0.98 7.66 -2 8 C-2.6875 6.25 -2.6875 6.25 -3 4 C-1.5625 1.75 -1.5625 1.75 0 0 Z " fill="#E0E8ED" transform="translate(34,23)"/>
<path d="M0 0 C0.598125 0.20625 1.19625 0.4125 1.8125 0.625 C0.53187515 2.3324998 -0.80517557 3.99873596 -2.1875 5.625 C-2.8475 5.625 -3.5075 5.625 -4.1875 5.625 C-4.5175 4.305 -4.8475 2.985 -5.1875 1.625 C-2.1875 -0.375 -2.1875 -0.375 0 0 Z " fill="#F1F4F7" transform="translate(38.1875,32.375)"/>
</svg>
